<?xml version="1.0" encoding="UTF-8" standalone="no"?>
<!-- Created with Inkscape (http://www.inkscape.org/) -->

<svg
   xmlns:dc="http://purl.org/dc/elements/1.1/"
   xmlns:cc="http://creativecommons.org/ns#"
   xmlns:rdf="http://www.w3.org/1999/02/22-rdf-syntax-ns#"
   xmlns:svg="http://www.w3.org/2000/svg"
   xmlns="http://www.w3.org/2000/svg"
   xmlns:sodipodi="http://sodipodi.sourceforge.net/DTD/sodipodi-0.dtd"
   xmlns:inkscape="http://www.inkscape.org/namespaces/inkscape"
   width="36mm"
   height="42mm"
   viewBox="0 0 36 42"
   version="1.1"
   id="svg8"
   inkscape:version="0.92.5 (2060ec1f9f, 2020-04-08)"
   sodipodi:docname="dots-logo.svg">
  <defs
     id="defs2" />
  <sodipodi:namedview
     id="base"
     pagecolor="#ffffff"
     bordercolor="#666666"
     borderopacity="1.0"
     inkscape:pageopacity="0.0"
     inkscape:pageshadow="2"
     inkscape:zoom="1.4"
     inkscape:cx="-70.978616"
     inkscape:cy="162.86926"
     inkscape:document-units="mm"
     inkscape:current-layer="layer1"
     showgrid="false"
     inkscape:window-width="1866"
     inkscape:window-height="1016"
     inkscape:window-x="54"
     inkscape:window-y="27"
     inkscape:window-maximized="1"
     fit-margin-top="0"
     fit-margin-left="0"
     fit-margin-right="0"
     fit-margin-bottom="0" />
  <metadata
     id="metadata5">
    <rdf:RDF>
      <cc:Work
         rdf:about="">
        <dc:format>image/svg+xml</dc:format>
        <dc:type
           rdf:resource="http://purl.org/dc/dcmitype/StillImage" />
        <dc:title />
      </cc:Work>
    </rdf:RDF>
  </metadata>
  <g
     inkscape:label="Layer 1"
     inkscape:groupmode="layer"
     id="layer1"
     transform="translate(-6.7015619,-144.38576)">
    <g
       aria-label="ف ففف"
       style="font-style:normal;font-weight:normal;font-size:33.16111374px;line-height:1.25;font-family:sans-serif;letter-spacing:0px;word-spacing:0px;fill:#000000;fill-opacity:1;stroke:none;stroke-width:0.26458332"
       id="text85">
      <path
         d="m 34.450929,157.48783 q 1.691217,0 2.885017,1.12748 1.226961,1.12747 1.823861,3.01766 0.5969,1.85702 0.5969,4.01249 0,2.61973 -0.497417,4.47675 -0.497416,1.85703 -1.624894,2.9845 -1.094317,1.09432 -5.073651,1.39277 -3.979333,0.29845 -10.976328,0.29845 -6.068484,0 -9.019822,-1.59173 -2.9181784,-1.59174 -2.9181784,-5.13998 0,-1.89018 0.9285114,-5.20629 l 2.487083,0.63006 q -0.696383,2.61973 -0.696383,3.81353 0,1.7907 0.89535,2.81869 0.895349,1.028 3.050822,1.49225 2.188633,0.46426 6.134806,0.46426 h 3.017661 q 4.244623,0 6.798028,-0.13265 2.586567,-0.1658 3.349273,-0.66322 0.630061,-0.39793 0.928511,-1.02799 0.331611,-0.66322 0.497417,-1.75754 -1.293284,0.43109 -2.885017,0.43109 -2.586567,0 -3.946173,-1.02799 -1.326444,-1.06116 -1.326444,-3.18347 0,-1.72438 0.696383,-3.38243 0.696383,-1.69122 1.956506,-2.75237 1.293283,-1.09432 2.918178,-1.09432 z m 0,8.82086 q 1.49225,0 2.719211,-0.39794 v -0.46425 q 0,-2.15548 -0.829028,-3.68089 -0.795866,-1.55857 -2.155472,-1.55857 -1.127478,0 -1.923345,1.22696 -0.762705,1.1938 -0.762705,2.61973 0,2.25496 2.951339,2.25496 z m -2.818695,-15.88418 q -0.696383,0 -1.1938,-0.46425 -0.464256,-0.49742 -0.464256,-1.16064 0,-0.66322 0.464256,-1.16064 0.497417,-0.49742 1.1938,-0.49742 0.663222,0 1.127478,0.49742 0.497417,0.49742 0.497417,1.16064 0,0.66322 -0.497417,1.16064 -0.464256,0.46425 -1.127478,0.46425 z m 4.509912,0 q -0.696384,0 -1.193801,-0.46425 -0.464255,-0.49742 -0.464255,-1.16064 0,-0.66322 0.464255,-1.16064 0.497417,-0.49742 1.193801,-0.49742 0.663222,0 1.127477,0.49742 0.497417,0.49742 0.497417,1.16064 0,0.66322 -0.497417,1.16064 -0.464255,0.46425 -1.127477,0.46425 z m -2.254956,3.64772 q -0.696384,0 -1.1938,-0.46425 -0.464256,-0.49742 -0.464256,-1.16064 0,-0.66322 0.464256,-1.16064 0.497416,-0.49742 1.1938,-0.49742 0.663222,0 1.127478,0.49742 0.497416,0.49742 0.497416,1.16064 0,0.66322 -0.497416,1.16064 -0.464256,0.46425 -1.127478,0.46425 z"
         style="font-style:normal;font-variant:normal;font-weight:normal;font-stretch:normal;font-size:33.16111374px;font-family:'Noto Sans Arabic';-inkscape-font-specification:'Noto Sans Arabic, Normal';font-variant-ligatures:normal;font-variant-caps:normal;font-variant-numeric:normal;font-feature-settings:normal;text-align:start;writing-mode:lr-tb;text-anchor:start;fill:#000000;stroke-width:0.26458332"
         id="path3906"
         inkscape:connector-curvature="0" />
    </g>
    <path
       style="fill:#ffffff;fill-opacity:1;stroke-width:0.71428573"
       d="m 44.307098,114.09105 c -13.059999,-1.11617 -22.564913,-4.56594 -27.43616,-9.95783 -4.119792,-4.560117 -5.000029,-7.18782 -5.016917,-14.976605 -0.01379,-6.358585 1.779811,-16.557488 3.18375,-18.103697 0.462943,-0.509856 8.555042,0.802394 8.555042,1.387323 0,0.109535 -0.502233,2.364738 -1.116072,5.011561 -2.437323,10.50953 -0.735973,18.694086 4.624368,22.246105 6.672644,4.421613 16.113891,5.389443 48.718326,4.994153 27.956475,-0.33894 31.734805,-0.78256 35.315505,-4.14645 1.45313,-1.365148 3.88644,-7.204132 3.88644,-9.325921 0,-0.294129 -1.04464,-0.221727 -2.32142,0.160896 -3.3931,1.016827 -13.95804,0.99527 -17.678576,-0.03607 -7.046807,-1.953395 -10.670664,-6.967456 -10.6986,-14.802831 -0.02929,-8.224695 3.80465,-17.110652 9.573614,-22.188699 11.631752,-10.238678 26.087902,-2.39917 29.732032,16.123547 1.34005,6.811412 0.55935,22.175556 -1.41915,27.92839 -4.42567,12.868378 -8.76507,14.549958 -40.617753,15.739988 -21.32,0.79652 -27.437879,0.78768 -37.284429,-0.0539 z M 114.14457,81.939766 c 1.59196,-0.605263 1.66602,-0.889889 1.23571,-4.749215 -1.06873,-9.585415 -4.51921,-15.911921 -9.41575,-17.26392 -6.371996,-1.759393 -12.371717,5.166618 -12.371717,14.281768 0,4.422411 2.372064,7.437043 6.640887,8.439818 3.2116,0.75443 11.12293,0.351523 13.91087,-0.708451 z"
       id="path9"
       inkscape:connector-curvature="0"
       transform="matrix(0.26458333,0,0,0.26458333,6.7015619,144.38576)" />
    <path
       style="fill:#ffffff;fill-opacity:1;stroke-width:0.71428573"
       d="m 99.852871,35.46405 c -3.296904,-1.596388 -4.00677,-6.197088 -1.363955,-8.839903 2.373394,-2.373395 5.993224,-2.3663 8.231404,0.01613 4.456,4.743188 -0.94992,11.689085 -6.867449,8.82377 z"
       id="path11"
       inkscape:connector-curvature="0"
       transform="matrix(0.26458333,0,0,0.26458333,6.7015619,144.38576)" />
    <path
       style="fill:#ffffff;fill-opacity:1;stroke-width:0.71428573"
       d="m 108.90012,21.814325 c -4.2599,-2.155534 -4.56392,-7.062823 -0.61949,-9.999216 4.52973,-3.3721105 10.17443,2.029725 8.01134,7.666647 -0.41785,1.088901 -3.80871,3.258761 -5.05654,3.235757 -0.31416,-0.0058 -1.36504,-0.412226 -2.33531,-0.903188 z"
       id="path13"
       inkscape:connector-curvature="0"
       transform="matrix(0.26458333,0,0,0.26458333,6.7015619,144.38576)" />
    <path
       style="fill:#ffffff;fill-opacity:1;stroke-width:0.71428573"
       d="m 91.75726,21.814325 c -4.273261,-2.162298 -4.562978,-7.06346 -0.592273,-10.019533 2.646319,-1.9701072 6.058672,-1.00006 7.965158,2.264295 1.304745,2.234036 1.316545,2.502512 0.211726,4.819336 -0.643497,1.349427 -1.996208,2.76763 -3.006026,3.151562 -2.302139,0.875272 -2.434988,0.869014 -4.578585,-0.21566 z"
       id="path15"
       inkscape:connector-curvature="0"
       transform="matrix(0.26458333,0,0,0.26458333,6.7015619,144.38576)" />
  </g>
</svg>
