<?xml version="1.0" encoding="UTF-8" standalone="no"?>
<svg
   xmlns:dc="http://purl.org/dc/elements/1.1/"
   xmlns:cc="http://creativecommons.org/ns#"
   xmlns:rdf="http://www.w3.org/1999/02/22-rdf-syntax-ns#"
   xmlns:svg="http://www.w3.org/2000/svg"
   xmlns="http://www.w3.org/2000/svg"
   xmlns:sodipodi="http://sodipodi.sourceforge.net/DTD/sodipodi-0.dtd"
   xmlns:inkscape="http://www.inkscape.org/namespaces/inkscape"
   width="400px"
   height="400px"
   viewBox="0 0 200 200"
   version="1.1"
   id="svg4"
   sodipodi:docname="triangle-logo.svg"
   inkscape:version="0.92.5 (2060ec1f9f, 2020-04-08)">
  <metadata
     id="metadata10">
    <rdf:RDF>
      <cc:Work
         rdf:about="">
        <dc:format>image/svg+xml</dc:format>
        <dc:type
           rdf:resource="http://purl.org/dc/dcmitype/StillImage" />
      </cc:Work>
    </rdf:RDF>
  </metadata>
  <defs
     id="defs8" />
  <sodipodi:namedview
     pagecolor="#ffffff"
     bordercolor="#666666"
     borderopacity="1"
     objecttolerance="10"
     gridtolerance="10"
     guidetolerance="10"
     inkscape:pageopacity="0"
     inkscape:pageshadow="2"
     inkscape:window-width="1866"
     inkscape:window-height="1016"
     id="namedview6"
     showgrid="false"
     inkscape:zoom="0.59"
     inkscape:cx="201.69492"
     inkscape:cy="200"
     inkscape:window-x="54"
     inkscape:window-y="27"
     inkscape:window-maximized="1"
     inkscape:current-layer="svg4" />
  <polygon
     style="fill:none;stroke:#000000;stroke-width:2.5px"
     points="183.138438763306,172 16.8615612366939,172 100,28"
     id="polygon2" />
  <path
     style="fill:#ffffff;fill-opacity:1;stroke-width:1.69491529"
     d="m 33.256959,341.27119 c 1.35321,-2.09746 39.325322,-67.71307 84.382471,-145.81246 45.05715,-78.0994 82.48245,-141.404484 83.16733,-140.67797 0.68488,0.726514 36.88385,63.1006 80.44214,138.60907 43.55829,75.50848 81.07585,140.52966 83.37234,144.49153 l 4.17544,7.20339 H 199.79663 30.796576 Z M 361.03685,339.03492 C 359.68141,335.50269 202.50334,63.267647 200.81873,61.534456 199.75632,60.441402 37.966102,337.91578 37.966102,340.8309 c 0,0.4752 72.920588,0.86402 162.045748,0.86402 146.52932,0 161.948,-0.25472 161.025,-2.66 z"
     id="path12"
     inkscape:connector-curvature="0"
     transform="scale(0.5)" />
</svg>
